<svg width="25" height="25" viewBox="0 0 25 25" fill="none" xmlns="http://www.w3.org/2000/svg">
<path d="M12.1587 2.91666C10.2304 2.91666 8.3453 3.48848 6.74192 4.55983C5.13854 5.63117 3.88886 7.15391 3.1509 8.93549C2.41295 10.7171 2.21986 12.6775 2.59607 14.5688C2.97228 16.4601 3.90087 18.1974 5.26444 19.5609C6.628 20.9245 8.36528 21.8531 10.2566 22.2293C12.1479 22.6055 14.1083 22.4124 15.8899 21.6745C17.6715 20.9365 19.1942 19.6868 20.2656 18.0835C21.3369 16.4801 21.9087 14.595 21.9087 12.6667C21.906 10.0816 20.8779 7.60327 19.05 5.77538C17.2221 3.94749 14.7437 2.91939 12.1587 2.91666ZM12.1587 20.9167C10.527 20.9167 8.93198 20.4328 7.57527 19.5263C6.21857 18.6198 5.16114 17.3313 4.53672 15.8238C3.9123 14.3163 3.74892 12.6575 4.06725 11.0572C4.38558 9.45682 5.17131 7.98681 6.3251 6.83303C7.47888 5.67924 8.94889 4.89351 10.5492 4.57518C12.1496 4.25685 13.8084 4.42023 15.3159 5.04465C16.8234 5.66907 18.1118 6.7265 19.0184 8.0832C19.9249 9.43991 20.4087 11.035 20.4087 12.6667C20.4062 14.8539 19.5363 16.9509 17.9896 18.4975C16.443 20.0442 14.346 20.9142 12.1587 20.9167ZM16.6587 12.6667C16.6587 12.8656 16.5797 13.0563 16.4391 13.197C16.2984 13.3376 16.1076 13.4167 15.9087 13.4167H12.9087V16.4167C12.9087 16.6156 12.8297 16.8063 12.6891 16.947C12.5484 17.0876 12.3576 17.1667 12.1587 17.1667C11.9598 17.1667 11.769 17.0876 11.6284 16.947C11.4877 16.8063 11.4087 16.6156 11.4087 16.4167V13.4167H8.40873C8.20981 13.4167 8.01905 13.3376 7.8784 13.197C7.73774 13.0563 7.65873 12.8656 7.65873 12.6667C7.65873 12.4677 7.73774 12.277 7.8784 12.1363C8.01905 11.9957 8.20981 11.9167 8.40873 11.9167H11.4087V8.91666C11.4087 8.71774 11.4877 8.52698 11.6284 8.38633C11.769 8.24567 11.9598 8.16666 12.1587 8.16666C12.3576 8.16666 12.5484 8.24567 12.6891 8.38633C12.8297 8.52698 12.9087 8.71774 12.9087 8.91666V11.9167H15.9087C16.1076 11.9167 16.2984 11.9957 16.4391 12.1363C16.5797 12.277 16.6587 12.4677 16.6587 12.6667Z" fill="black"/>
</svg>
