<svg class="icon" id="icon-add-todo" width="25" height="25" viewBox="0 0 25 25" fill="currentColor" xmlns="http://www.w3.org/2000/svg">
<path d="M21.3333 12.8254C21.3333 13.0243 21.2543 13.2151 21.1137 13.3557C20.973 13.4964 20.7823 13.5754 20.5833 13.5754H13.0833V21.0754C13.0833 21.2743 13.0043 21.4651 12.8637 21.6057C12.723 21.7464 12.5323 21.8254 12.3333 21.8254C12.1344 21.8254 11.9437 21.7464 11.803 21.6057C11.6624 21.4651 11.5833 21.2743 11.5833 21.0754V13.5754H4.08334C3.88443 13.5754 3.69367 13.4964 3.55301 13.3557C3.41236 13.2151 3.33334 13.0243 3.33334 12.8254C3.33334 12.6265 3.41236 12.4357 3.55301 12.2951C3.69367 12.1544 3.88443 12.0754 4.08334 12.0754H11.5833V4.57541C11.5833 4.3765 11.6624 4.18573 11.803 4.04508C11.9437 3.90443 12.1344 3.82541 12.3333 3.82541C12.5323 3.82541 12.723 3.90443 12.8637 4.04508C13.0043 4.18573 13.0833 4.3765 13.0833 4.57541V12.0754H20.5833C20.7823 12.0754 20.973 12.1544 21.1137 12.2951C21.2543 12.4357 21.3333 12.6265 21.3333 12.8254Z"/>
</svg>
