<svg class="icon" id="trash-icon" width="25" height="25" viewBox="0 0 25 25" fill="currentColor" xmlns="http://www.w3.org/2000/svg">
<path d="M20.3611 5.00793H16.6111V4.25793C16.6111 3.6612 16.3741 3.0889 15.9521 2.66694C15.5301 2.24499 14.9579 2.00793 14.3611 2.00793H9.86111C9.26438 2.00793 8.69208 2.24499 8.27012 2.66694C7.84817 3.0889 7.61111 3.6612 7.61111 4.25793V5.00793H3.86111C3.6622 5.00793 3.47144 5.08695 3.33078 5.2276C3.19013 5.36826 3.11111 5.55902 3.11111 5.75793C3.11111 5.95685 3.19013 6.14761 3.33078 6.28826C3.47144 6.42892 3.6622 6.50793 3.86111 6.50793H4.61111V20.0079C4.61111 20.4058 4.76915 20.7873 5.05045 21.0686C5.33176 21.3499 5.71329 21.5079 6.11111 21.5079H18.1111C18.5089 21.5079 18.8905 21.3499 19.1718 21.0686C19.4531 20.7873 19.6111 20.4058 19.6111 20.0079V6.50793H20.3611C20.56 6.50793 20.7508 6.42892 20.8914 6.28826C21.0321 6.14761 21.1111 5.95685 21.1111 5.75793C21.1111 5.55902 21.0321 5.36826 20.8914 5.2276C20.7508 5.08695 20.56 5.00793 20.3611 5.00793ZM9.11111 4.25793C9.11111 4.05902 9.19013 3.86826 9.33078 3.7276C9.47144 3.58695 9.6622 3.50793 9.86111 3.50793H14.3611C14.56 3.50793 14.7508 3.58695 14.8914 3.7276C15.0321 3.86826 15.1111 4.05902 15.1111 4.25793V5.00793H9.11111V4.25793ZM18.1111 20.0079H6.11111V6.50793H18.1111V20.0079ZM10.6111 10.2579V16.2579C10.6111 16.4568 10.5321 16.6476 10.3914 16.7883C10.2508 16.9289 10.06 17.0079 9.86111 17.0079C9.6622 17.0079 9.47144 16.9289 9.33078 16.7883C9.19013 16.6476 9.11111 16.4568 9.11111 16.2579V10.2579C9.11111 10.059 9.19013 9.86826 9.33078 9.7276C9.47144 9.58695 9.6622 9.50793 9.86111 9.50793C10.06 9.50793 10.2508 9.58695 10.3914 9.7276C10.5321 9.86826 10.6111 10.059 10.6111 10.2579ZM15.1111 10.2579V16.2579C15.1111 16.4568 15.0321 16.6476 14.8914 16.7883C14.7508 16.9289 14.56 17.0079 14.3611 17.0079C14.1622 17.0079 13.9714 16.9289 13.8308 16.7883C13.6901 16.6476 13.6111 16.4568 13.6111 16.2579V10.2579C13.6111 10.059 13.6901 9.86826 13.8308 9.7276C13.9714 9.58695 14.1622 9.50793 14.3611 9.50793C14.56 9.50793 14.7508 9.58695 14.8914 9.7276C15.0321 9.86826 15.1111 10.059 15.1111 10.2579Z"/>
</svg>
